<?xml version="1.0" encoding="utf-8"?>
<!-- Generator: Adobe Illustrator 16.0.2, SVG Export Plug-In . SVG Version: 6.00 Build 0)  -->
<!DOCTYPE svg PUBLIC "-//W3C//DTD SVG 1.1//EN" "http://www.w3.org/Graphics/SVG/1.1/DTD/svg11.dtd">
<svg version="1.1" xmlns="http://www.w3.org/2000/svg" xmlns:xlink="http://www.w3.org/1999/xlink" x="0px" y="0px" width="32px"
	 height="32px" viewBox="0 0 32 32" enable-background="new 0 0 32 32" xml:space="preserve">
<g id="Ebene_1" display="none">
	<path id="fullscreen-5-icon" display="inline" fill="#010202" d="M0.771,4.935v23.55h30.458V4.935H0.771z M10.235,25.336H3.923
		v-6.312l1.549,1.544l2.527-2.526l3.218,3.218l-2.528,2.527L10.235,25.336z M7.999,15.38l-2.528-2.527l-1.548,1.545V8.085h6.312
		L8.689,9.633l2.528,2.528L7.999,15.38z M28.081,25.336H21.77l1.546-1.549l-2.478-2.476l3.22-3.219l2.475,2.476l1.549-1.544V25.336
		L28.081,25.336z M28.081,14.397l-1.549-1.546l-2.475,2.476l-3.22-3.218l2.478-2.477L21.77,8.086h6.312V14.397L28.081,14.397z"/>
</g>
<g id="Ebene_2" display="none">
	<path display="inline" fill="#020303" d="M28.753,17.605v-3.143l-3.774-1.573c-0.102-0.298-0.212-0.582-0.346-0.864l1.494-3.774
		l-2.359-2.359l-3.774,1.572c-0.282-0.141-0.573-0.252-0.863-0.361l-1.573-3.696h-3.145l-1.572,3.696
		c-0.314,0.109-0.613,0.228-0.944,0.369L8.123,5.979L5.764,8.18l1.494,3.695c-0.079,0-0.236,0.786-0.314,0.786l-3.695,1.573v3.145
		l3.695,1.572c0.11,0.322,0.236,0.629,0.385,0.943L5.834,23.59l2.201,2.201l3.695-1.494c0.299,0.143,0.605,0.252,0.943,0.361
		l1.572,3.934h3.145l1.572-3.775c0.299-0.111,0.59-0.229,0.865-0.361l3.774,1.492l2.2-2.199l-1.572-3.773
		c0.134-0.285,0.235-0.568,0.346-0.867l3.931-1.572L28.753,17.605z M16.173,20.752c-2.595,0-4.717-2.123-4.717-4.717
		c0-2.595,2.123-4.718,4.717-4.718s4.718,2.123,4.718,4.718C20.891,18.629,18.531,20.752,16.173,20.752z"/>
</g>
<g id="Ebene_3">
	<path fill="#010202" d="M5.872,29.153c-1.064,0-1.923-0.859-1.924-1.921l0,0V7.226c0-1.064,0.86-1.923,1.924-1.923l0,0h10.314
		L13.438,8.05H6.697v18.357l17.549,0.001v-3.692l2.746-2.747v7.264c-0.001,1.062-0.861,1.923-1.924,1.925l0,0L5.872,29.153
		L5.872,29.153z"/>
	<path fill="#010202" d="M22.512,7.13V4.074l7.905,7.907l-7.94,7.941v-3.177c0,0-4.657-0.323-7.996,1.745
		c-2.22,1.375-3.543,2.747-4.64,4.607c0,0,0.3-4.933,3.137-9.427C16.526,8.054,22.512,7.13,22.512,7.13z"/>
</g>
</svg>
